<svg width="40" height="40" viewBox="0 0 40 40" fill="none" xmlns="http://www.w3.org/2000/svg">
<path d="M29.5833 6.55833V4.375C29.5833 4.04348 29.4516 3.72554 29.2172 3.49112C28.9828 3.2567 28.6649 3.125 28.3333 3.125C28.0018 3.125 27.6839 3.2567 27.4494 3.49112C27.215 3.72554 27.0833 4.04348 27.0833 4.375V6.45833H12.9167V4.375C12.9167 4.04348 12.785 3.72554 12.5506 3.49112C12.3161 3.2567 11.9982 3.125 11.6667 3.125C11.3351 3.125 11.0172 3.2567 10.7828 3.49112C10.5484 3.72554 10.4167 4.04348 10.4167 4.375V6.55833C8.55888 6.85881 6.8684 7.80992 5.64718 9.24181C4.42596 10.6737 3.75353 12.4931 3.75 14.375V28.9583C3.75 29.998 3.95477 31.0274 4.35262 31.9879C4.75047 32.9484 5.33361 33.8211 6.06874 34.5563C7.5534 36.0409 9.56704 36.875 11.6667 36.875H28.3333C29.373 36.875 30.4024 36.6702 31.3629 36.2724C32.3234 35.8745 33.1961 35.2914 33.9313 34.5563C34.6664 33.8211 35.2495 32.9484 35.6474 31.9879C36.0452 31.0274 36.25 29.998 36.25 28.9583V14.375C36.2465 12.4931 35.574 10.6737 34.3528 9.24181C33.1316 7.80992 31.4411 6.85881 29.5833 6.55833ZM24.1667 26.1917H15.8333C15.5018 26.1917 15.1839 26.06 14.9495 25.8256C14.715 25.5911 14.5833 25.2732 14.5833 24.9417C14.5833 24.6101 14.715 24.2922 14.9495 24.0578C15.1839 23.8234 15.5018 23.6917 15.8333 23.6917H24.1667C24.4982 23.6917 24.8161 23.8234 25.0505 24.0578C25.285 24.2922 25.4167 24.6101 25.4167 24.9417C25.4167 25.2732 25.285 25.5911 25.0505 25.8256C24.8161 26.06 24.4982 26.1917 24.1667 26.1917ZM33.75 14.7417H6.25V14.325C6.25164 13.1085 6.66399 11.9282 7.42023 10.9753C8.17648 10.0224 9.23232 9.35284 10.4167 9.075V10.9917C10.4167 11.3232 10.5484 11.6411 10.7828 11.8755C11.0172 12.11 11.3351 12.2417 11.6667 12.2417C11.9982 12.2417 12.3161 12.11 12.5506 11.8755C12.785 11.6411 12.9167 11.3232 12.9167 10.9917V8.90833H27.0833V10.9917C27.0833 11.3232 27.215 11.6411 27.4494 11.8755C27.6839 12.11 28.0018 12.2417 28.3333 12.2417C28.6649 12.2417 28.9828 12.11 29.2172 11.8755C29.4516 11.6411 29.5833 11.3232 29.5833 10.9917V9.075C30.7677 9.35284 31.8235 10.0224 32.5798 10.9753C33.336 11.9282 33.7484 13.1085 33.75 14.325V14.7417Z" fill="#FA5A7D"/>
</svg>
