<svg width="41" height="41" viewBox="0 0 41 41" fill="none" xmlns="http://www.w3.org/2000/svg">
<path d="M16.2194 19.0694C16.0527 19.0527 15.8527 19.0527 15.6694 19.0694C11.7027 18.9361 8.55273 15.6861 8.55273 11.6861C8.55273 7.60272 11.8527 4.28606 15.9527 4.28606C20.0361 4.28606 23.3527 7.60272 23.3527 11.6861C23.3361 15.6861 20.1861 18.9361 16.2194 19.0694Z" stroke="#3CD856" stroke-width="2.625" stroke-linecap="round" stroke-linejoin="round"/>
<path d="M28.3021 7.6187C31.5354 7.6187 34.1354 10.2354 34.1354 13.452C34.1354 16.602 31.6354 19.1687 28.5188 19.2854C28.3854 19.2687 28.2354 19.2687 28.0854 19.2854" stroke="#3CD856" stroke-width="2.625" stroke-linecap="round" stroke-linejoin="round"/>
<path d="M7.88633 25.2187C3.85299 27.9187 3.85299 32.3187 7.88633 35.002C12.4697 38.0687 19.9863 38.0687 24.5697 35.002C28.603 32.302 28.603 27.902 24.5697 25.2187C20.003 22.1687 12.4863 22.1687 7.88633 25.2187Z" stroke="#3CD856" stroke-width="2.625" stroke-linecap="round" stroke-linejoin="round"/>
<path d="M31.5188 34.2861C32.7188 34.0361 33.8521 33.5527 34.7855 32.8361C37.3855 30.8861 37.3855 27.6694 34.7855 25.7194C33.8688 25.0194 32.7521 24.5527 31.5688 24.2861" stroke="#3CD856" stroke-width="2.625" stroke-linecap="round" stroke-linejoin="round"/>
</svg>
