<svg width="21" height="20" viewBox="0 0 21 20" fill="none" xmlns="http://www.w3.org/2000/svg">
<path d="M17.1667 4.16667C17.3877 4.16667 17.5996 4.25447 17.7559 4.41075C17.9122 4.56703 18 4.77899 18 5C18 5.22101 17.9122 5.43298 17.7559 5.58926C17.5996 5.74554 17.3877 5.83333 17.1667 5.83333H16.3333L16.3308 5.8925L15.5533 16.785C15.5234 17.2055 15.3352 17.599 15.0268 17.8863C14.7183 18.1736 14.3124 18.3333 13.8908 18.3333H7.10833C6.68678 18.3333 6.28089 18.1736 5.9724 17.8863C5.66392 17.599 5.47576 17.2055 5.44583 16.785L4.66833 5.89333L4.66667 5.83333H3.83333C3.61232 5.83333 3.40036 5.74554 3.24408 5.58926C3.0878 5.43298 3 5.22101 3 5C3 4.77899 3.0878 4.56703 3.24408 4.41075C3.40036 4.25447 3.61232 4.16667 3.83333 4.16667H17.1667ZM12.1667 1.66667C12.3877 1.66667 12.5996 1.75447 12.7559 1.91075C12.9122 2.06703 13 2.27899 13 2.5C13 2.72101 12.9122 2.93298 12.7559 3.08926C12.5996 3.24554 12.3877 3.33333 12.1667 3.33333H8.83333C8.61232 3.33333 8.40036 3.24554 8.24408 3.08926C8.0878 2.93298 8 2.72101 8 2.5C8 2.27899 8.0878 2.06703 8.24408 1.91075C8.40036 1.75447 8.61232 1.66667 8.83333 1.66667H12.1667Z" fill="white"/>
</svg>
