<svg width="21" height="20" viewBox="0 0 21 20" fill="none" xmlns="http://www.w3.org/2000/svg">
<path d="M13 2.5C14.08 2.5 15.08 2.84167 15.8975 3.425L8.28583 11.0358C8.20624 11.1127 8.14276 11.2047 8.09908 11.3063C8.05541 11.408 8.03242 11.5174 8.03146 11.628C8.0305 11.7386 8.05158 11.8484 8.09348 11.9508C8.13538 12.0532 8.19726 12.1463 8.2755 12.2245C8.35375 12.3027 8.44679 12.3646 8.54921 12.4065C8.65162 12.4484 8.76135 12.4695 8.872 12.4685C8.98265 12.4676 9.092 12.4446 9.19367 12.4009C9.29534 12.3572 9.38729 12.2938 9.46417 12.2142L17.0758 4.6025C17.6773 5.44894 18.0003 6.46164 18 7.5V15.8333C18 16.2754 17.8244 16.6993 17.5118 17.0118C17.1993 17.3244 16.7754 17.5 16.3333 17.5H4.66667C4.22464 17.5 3.80072 17.3244 3.48816 17.0118C3.17559 16.6993 3 16.2754 3 15.8333V4.16667C3 3.72464 3.17559 3.30072 3.48816 2.98816C3.80072 2.67559 4.22464 2.5 4.66667 2.5H13ZM18.5475 1.9525C18.7037 2.10877 18.7915 2.3207 18.7915 2.54167C18.7915 2.76264 18.7037 2.97456 18.5475 3.13083L17.075 4.6025C16.7509 4.14657 16.3526 3.74827 15.8967 3.42417L17.3683 1.9525C17.5246 1.79627 17.7365 1.70851 17.9575 1.70851C18.1785 1.70851 18.3912 1.79627 18.5475 1.9525Z" fill="white"/>
</svg>
