<svg width="20" height="20" viewBox="0 0 20 20" fill="none" xmlns="http://www.w3.org/2000/svg">
<path d="M9.99992 3.95833C10.5749 3.95833 11.0416 4.42499 11.0416 4.99999V8.95833H14.9999C15.2762 8.95833 15.5411 9.06807 15.7365 9.26343C15.9318 9.45878 16.0416 9.72373 16.0416 9.99999C16.0416 10.2763 15.9318 10.5412 15.7365 10.7366C15.5411 10.9319 15.2762 11.0417 14.9999 11.0417H11.0416V15C11.0416 15.2763 10.9318 15.5412 10.7365 15.7366C10.5411 15.9319 10.2762 16.0417 9.99992 16.0417C9.72365 16.0417 9.4587 15.9319 9.26335 15.7366C9.068 15.5412 8.95825 15.2763 8.95825 15V11.0417H4.99992C4.72365 11.0417 4.4587 10.9319 4.26335 10.7366C4.068 10.5412 3.95825 10.2763 3.95825 9.99999C3.95825 9.72373 4.068 9.45878 4.26335 9.26343C4.4587 9.06807 4.72365 8.95833 4.99992 8.95833H8.95825V4.99999C8.95825 4.42499 9.42492 3.95833 9.99992 3.95833Z" fill="white"/>
</svg>
