<svg width="9" height="8" viewBox="0 0 9 8" fill="none" xmlns="http://www.w3.org/2000/svg">
<path d="M0.209396 1.77093L2.98702 4.29272L0.209396 6.81452C-0.0697987 7.068 -0.0697987 7.47746 0.209396 7.73094C0.488591 7.98442 0.939597 7.98442 1.21879 7.73094L4.5047 4.74768C4.78389 4.4942 4.78389 4.08474 4.5047 3.83126L1.21879 0.848003C0.939597 0.594524 0.48859 0.594524 0.209396 0.848003C-0.0626402 1.10148 -0.069799 1.51745 0.209396 1.77093Z" fill="#1D242E"/>
<path d="M4.2094 1.77093L6.98702 4.29272L4.2094 6.81452C3.9302 7.068 3.9302 7.47746 4.2094 7.73094C4.48859 7.98442 4.9396 7.98442 5.21879 7.73094L8.5047 4.74768C8.78389 4.4942 8.78389 4.08474 8.5047 3.83126L5.21879 0.848003C4.9396 0.594524 4.48859 0.594524 4.2094 0.848003C3.93736 1.10148 3.9302 1.51745 4.2094 1.77093Z" fill="#1D242E"/>
</svg>
