<svg width="24" height="24" viewBox="0 0 24 24" fill="none" xmlns="http://www.w3.org/2000/svg">
<g clip-path="url(#clip0_4_1777)">
<path fill-rule="evenodd" clip-rule="evenodd" d="M15.0001 3L16.0001 3.99998L16 6H22V20H2.00012V6H8.00012V3.99998L9.00006 3H15.0001ZM4.00004 13.3563V18H20.0001V13.3563C18.002 13.928 16.0017 14.2856 14.0001 14.4285V16H10.0001V14.4286C7.99843 14.2856 5.99814 13.9281 4.00009 13.3564M20.0001 8.00006H4.00009V11.2703C6.67065 12.0907 9.33634 12.5001 12.0001 12.5001C14.6638 12.5001 17.3295 12.0907 20.0001 11.2703V8.00006ZM14.0001 5.00006H10.0001V6H14.0001V5.00006Z" fill="#9197B3"/>
</g>
<defs>
<clipPath id="clip0_4_1777">
<rect width="24" height="24" fill="white"/>
</clipPath>
</defs>
</svg>
