<svg width="38" height="38" viewBox="0 0 38 38" fill="none" xmlns="http://www.w3.org/2000/svg">
<path fill-rule="evenodd" clip-rule="evenodd" d="M7.91667 9.89584C6.76187 9.89584 5.65437 10.3546 4.83781 11.1711C4.02124 11.9877 3.5625 13.0952 3.5625 14.25V28.5C3.5625 29.6548 4.02124 30.7623 4.83781 31.5789C5.65437 32.3954 6.76187 32.8542 7.91667 32.8542H30.0833C31.2381 32.8542 32.3456 32.3954 33.1622 31.5789C33.9788 30.7623 34.4375 29.6548 34.4375 28.5V14.25C34.4375 13.0952 33.9788 11.9877 33.1622 11.1711C32.3456 10.3546 31.2381 9.89584 30.0833 9.89584H7.91667ZM26.125 19.3958C25.6001 19.3958 25.0967 19.6044 24.7255 19.9755C24.3544 20.3467 24.1458 20.8501 24.1458 21.375C24.1458 21.8999 24.3544 22.4033 24.7255 22.7745C25.0967 23.1457 25.6001 23.3542 26.125 23.3542C26.6499 23.3542 27.1533 23.1457 27.5245 22.7745C27.8957 22.4033 28.1042 21.8999 28.1042 21.375C28.1042 20.8501 27.8957 20.3467 27.5245 19.9755C27.1533 19.6044 26.6499 19.3958 26.125 19.3958Z" fill="#FED600"/>
<path d="M26.1013 4.85925C26.57 4.73432 27.0613 4.71878 27.537 4.81382C28.0128 4.90887 28.4603 5.11196 28.8451 5.40741C29.23 5.70287 29.5417 6.08279 29.7564 6.51786C29.9711 6.95293 30.083 7.43151 30.0833 7.91667H14.25L26.1013 4.85925Z" fill="#FED600"/>
</svg>
