<svg width="142" height="142" viewBox="0 0 142 142" fill="none" xmlns="http://www.w3.org/2000/svg">
<rect width="142" height="142" rx="71" fill="black"/>
<path fill-rule="evenodd" clip-rule="evenodd" d="M71 11.8333C38.3223 11.8333 11.8333 38.3223 11.8333 71C11.8333 103.678 38.3223 130.167 71 130.167C103.678 130.167 130.167 103.678 130.167 71C130.167 38.3223 103.678 11.8333 71 11.8333ZM50.2917 56.2083C50.2917 53.4889 50.8273 50.7961 51.868 48.2836C52.9087 45.7712 54.4341 43.4883 56.357 41.5653C58.28 39.6424 60.5628 38.117 63.0753 37.0763C65.5877 36.0356 68.2806 35.5 71 35.5C73.7195 35.5 76.4123 36.0356 78.9248 37.0763C81.4372 38.117 83.7201 39.6424 85.643 41.5653C87.566 43.4883 89.0913 45.7712 90.132 48.2836C91.1727 50.7961 91.7084 53.4889 91.7084 56.2083C91.7084 61.7005 89.5266 66.9678 85.643 70.8513C81.7595 74.7349 76.4922 76.9167 71 76.9167C65.5078 76.9167 60.2406 74.7349 56.357 70.8513C52.4734 66.9678 50.2917 61.7005 50.2917 56.2083ZM108.027 100.489C103.596 106.058 97.9653 110.556 91.5541 113.646C85.1429 116.735 78.1169 118.338 71 118.333C63.8831 118.338 56.8571 116.735 50.4459 113.646C44.0348 110.556 38.404 106.058 33.9735 100.489C43.5644 93.6076 56.6521 88.75 71 88.75C85.3479 88.75 98.4356 93.6076 108.027 100.489Z" fill="white"/>
</svg>
