<svg width="142" height="142" viewBox="0 0 142 142" fill="none" xmlns="http://www.w3.org/2000/svg">
<g clip-path="url(#clip0_4_993)">
<rect width="142" height="142" rx="71" fill="url(#paint0_linear_4_993)"/>
<path d="M85.6733 82.3599V88.0399C85.6733 95.6132 96.56 98.9266 96.56 98.9266C96.56 98.9266 84.0167 108.393 71 108.393C57.9833 108.393 45.44 98.9266 45.44 98.9266C45.44 98.9266 56.4123 95.6132 56.3267 88.0399C56.241 80.4666 56.2983 76.0172 56.241 63.0422C49.4572 54.2491 49.8926 48.3476 53.6022 44.1974C66.03 30.2932 99.8733 35.0266 99.8733 35.0266C99.8733 35.0266 103.031 69.1033 95.85 79.0466C92.7733 83.3066 85.6733 82.3599 85.6733 82.3599Z" fill="url(#paint1_linear_4_993)"/>
<path style="mix-blend-mode:multiply" opacity="0.6" d="M85.6733 82.3599C75.26 81.1766 69.1067 76.6799 69.1067 76.6799C72.9916 82.4274 78.9121 86.4872 85.6733 88.0399V82.3599Z" fill="url(#paint2_linear_4_993)"/>
<path d="M120.7 113.272C125.206 122.435 127.8 143.566 127.8 143.566H14.2C14.2 143.566 16.7948 122.432 21.3 113.272C25.8052 104.112 52.114 95.6166 52.114 95.6166C57.1848 106.027 85.0145 106.027 89.8723 95.6133C89.8723 95.6133 116.194 104.11 120.7 113.272Z" fill="url(#paint3_linear_4_993)"/>
<path d="M69.1067 131.587C69.1067 131.212 69.2177 130.846 69.4257 130.535C69.6338 130.223 69.9295 129.981 70.2754 129.837C70.6214 129.694 71.0021 129.657 71.3694 129.73C71.7366 129.803 72.074 129.983 72.3388 130.248C72.6036 130.513 72.7839 130.85 72.8569 131.217C72.93 131.585 72.8925 131.965 72.7492 132.311C72.6059 132.657 72.3632 132.953 72.0519 133.161C71.7405 133.369 71.3745 133.48 71 133.48C70.4978 133.48 70.0163 133.281 69.6612 132.925C69.3061 132.57 69.1067 132.089 69.1067 131.587ZM69.1067 122.12C69.1067 121.746 69.2177 121.379 69.4257 121.068C69.6338 120.757 69.9295 120.514 70.2754 120.371C70.6214 120.227 71.0021 120.19 71.3694 120.263C71.7366 120.336 72.074 120.516 72.3388 120.781C72.6036 121.046 72.7839 121.383 72.8569 121.751C72.93 122.118 72.8925 122.499 72.7492 122.845C72.6059 123.191 72.3632 123.486 72.0519 123.694C71.7405 123.902 71.3745 124.013 71 124.013C70.4978 124.013 70.0163 123.814 69.6612 123.459C69.3061 123.104 69.1067 122.622 69.1067 122.12ZM69.1067 112.653C69.1067 112.279 69.2177 111.913 69.4257 111.601C69.6338 111.29 69.9295 111.047 70.2754 110.904C70.6214 110.761 71.0021 110.723 71.3694 110.796C71.7366 110.869 72.074 111.05 72.3388 111.315C72.6036 111.579 72.7839 111.917 72.8569 112.284C72.93 112.651 72.8925 113.032 72.7492 113.378C72.6059 113.724 72.3632 114.02 72.0519 114.228C71.7405 114.436 71.3745 114.547 71 114.547C70.4978 114.547 70.0163 114.347 69.6612 113.992C69.3061 113.637 69.1067 113.155 69.1067 112.653Z" fill="white"/>
<path d="M62.08 48.8522C60.5748 47.5595 58.7459 46.689 56.1605 48.0324C50.0313 51.2146 54.67 63.4266 60.1133 63.4266C61.5333 63.4266 62.2395 67.8863 55.9172 70.9999C55.9172 66.0299 48.3439 53.7233 47.6812 42.5185C40.0606 39.6809 41.9539 28.327 47.1857 28.327C46.3507 17.9194 63.0172 12.5433 69.4707 18.5163C76.0339 10.6499 92.6006 14.6733 93.6007 21.4978C104.992 15.4169 112.481 32.8966 101.814 39.6823C97.4248 42.475 87.1572 43.5376 72.3357 43.5376C70.0983 43.5376 68.8449 44.0933 69.4707 46.8599C70.6819 52.2209 67.8698 55.5977 62.08 48.8522Z" fill="url(#paint4_linear_4_993)"/>
</g>
<defs>
<linearGradient id="paint0_linear_4_993" x1="71" y1="142" x2="71" y2="0" gradientUnits="userSpaceOnUse">
<stop stop-color="#FFC9B3"/>
<stop offset="1" stop-color="#FFD2C2"/>
</linearGradient>
<linearGradient id="paint1_linear_4_993" x1="73.0024" y1="34.2499" x2="73.0024" y2="108.393" gradientUnits="userSpaceOnUse">
<stop stop-color="#E6864E"/>
<stop offset="1" stop-color="#EB965E"/>
</linearGradient>
<linearGradient id="paint2_linear_4_993" x1="82.5422" y1="78.8156" x2="79.6406" y2="89.8028" gradientUnits="userSpaceOnUse">
<stop stop-color="#E07A3F"/>
<stop offset="1" stop-color="#EB9154"/>
</linearGradient>
<linearGradient id="paint3_linear_4_993" x1="71" y1="95.6133" x2="71" y2="143.566" gradientUnits="userSpaceOnUse">
<stop stop-color="#1D0024"/>
<stop offset="1" stop-color="#100014"/>
</linearGradient>
<linearGradient id="paint4_linear_4_993" x1="74.7788" y1="14.1987" x2="74.7788" y2="70.9999" gradientUnits="userSpaceOnUse">
<stop stop-color="#1D0024"/>
<stop offset="1" stop-color="#100014"/>
</linearGradient>
<clipPath id="clip0_4_993">
<rect width="142" height="142" rx="71" fill="white"/>
</clipPath>
</defs>
</svg>
