<svg width="142" height="142" viewBox="0 0 142 142" fill="none" xmlns="http://www.w3.org/2000/svg">
<g clip-path="url(#clip0_4_996)">
<rect width="142" height="142" rx="71" fill="url(#paint0_linear_4_996)"/>
<path d="M86.1467 83.3067V93.72C86.1467 94.7509 71 97.8721 71 97.8721C71 97.8721 55.8533 95.1906 55.8533 93.72C55.8533 90.9368 55.9101 76.964 55.8533 63.989C49.0695 55.1959 49.0695 49.7 54.4333 44.02C59.7971 38.34 97.98 35.5 97.98 35.5C97.98 35.5 100.845 63.0527 101.293 70.5267C101.474 73.5323 103.423 83.3067 95.85 83.3067H86.1467Z" fill="url(#paint1_linear_4_996)"/>
<path d="M86.1467 82.4182V88.1157C76.0019 86.3089 70.1641 82.4969 68.6333 76.68C73.0511 79.6778 78.7311 81.5711 85.6733 82.36C85.8311 82.378 85.9889 82.3974 86.1467 82.4182Z" fill="#DE6530"/>
<path d="M120.7 115.166C123.704 121.274 126.071 131.372 127.8 145.459H14.2C15.9299 131.37 18.2965 121.272 21.3 115.166C24.2934 109.079 52.0667 97.3642 52.0667 97.3642L89.9333 97.3609C89.9333 97.3609 117.712 109.091 120.7 115.166Z" fill="url(#paint2_linear_4_996)"/>
<path d="M74.3133 100.347L76.68 143.893H65.32L67.6867 100.347C67.6867 100.347 69.8957 97.98 71 97.98C72.1043 97.98 74.3133 100.347 74.3133 100.347Z" fill="url(#paint3_linear_4_996)"/>
<path d="M74.7923 109.159L67.4386 104.911L67.6867 100.347C69.1594 98.7689 70.2638 97.98 71 97.98C71.7362 97.98 72.8406 98.7689 74.3133 100.347L74.7923 109.159Z" fill="#D24B24"/>
<path d="M71 97.9757L66.2667 106.5L51.5933 97.5067L55.8533 91.3533L71 96.9486L86.1467 91.3533L90.4067 97.5067L75.7333 106.5L71 97.9757Z" fill="white"/>
<path d="M62.0161 49.7975C60.5109 48.5048 58.682 47.6344 56.0966 48.9777C49.9674 52.1599 54.0353 64.4372 60.8943 64.1977C63.261 64.1154 62.1761 68.8317 55.8533 71.9467C55.8533 66.9767 48.28 54.67 47.6173 43.4653C39.9967 40.6276 41.89 29.2738 47.1217 29.2738C46.2868 18.8647 62.9533 13.4886 69.4068 19.4616C75.97 11.5952 92.5367 15.6186 93.5368 22.4431C104.929 16.3622 112.417 33.8419 101.75 40.6276C97.3609 43.4203 87.0933 44.4829 72.2718 44.4829C65.1595 44.4829 69.2496 61.1301 71.4733 66.5033C74.3133 73.3667 90.17 74.3133 95.14 73.6033C99.0213 73.0491 101.057 71.4733 101.293 70.5267C104.843 79.9933 100.347 85.6733 93.2467 85.6733C81.1767 85.6733 69.1067 82.1233 67.2133 73.3667C65.7062 66.3978 65.7891 55.1509 62.0161 49.7975Z" fill="url(#paint4_linear_4_996)"/>
</g>
<defs>
<linearGradient id="paint0_linear_4_996" x1="71" y1="142" x2="71" y2="0" gradientUnits="userSpaceOnUse">
<stop stop-color="#FFC9B3"/>
<stop offset="1" stop-color="#FFD2C2"/>
</linearGradient>
<linearGradient id="paint1_linear_4_996" x1="76.1108" y1="35.5" x2="76.1108" y2="97.8721" gradientUnits="userSpaceOnUse">
<stop stop-color="#E6864E"/>
<stop offset="1" stop-color="#EB965E"/>
</linearGradient>
<linearGradient id="paint2_linear_4_996" x1="71" y1="97.3609" x2="71" y2="145.459" gradientUnits="userSpaceOnUse">
<stop stop-color="#130027"/>
<stop offset="1" stop-color="#130017"/>
</linearGradient>
<linearGradient id="paint3_linear_4_996" x1="71" y1="143.893" x2="71" y2="97.98" gradientUnits="userSpaceOnUse">
<stop stop-color="#E6864E"/>
<stop offset="1" stop-color="#E67240"/>
</linearGradient>
<linearGradient id="paint4_linear_4_996" x1="74.7149" y1="15.144" x2="74.7149" y2="85.6733" gradientUnits="userSpaceOnUse">
<stop stop-color="#130027"/>
<stop offset="1" stop-color="#130017"/>
</linearGradient>
<clipPath id="clip0_4_996">
<rect width="142" height="142" rx="71" fill="white"/>
</clipPath>
</defs>
</svg>
