<svg width="142" height="142" viewBox="0 0 142 142" fill="none" xmlns="http://www.w3.org/2000/svg">
<g clip-path="url(#clip0_4_998)">
<rect width="142" height="142" rx="71" fill="url(#paint0_linear_4_998)"/>
<path d="M44.9667 99.2977C53.6443 105.609 62.3224 110.658 71 110.658C79.6776 110.658 88.3557 105.609 97.0334 99.2977C89.8807 97.1204 86.2518 93.8702 86.1467 89.5471C86.1467 88.7765 86.1524 87.6821 86.1576 85.6274C86.1576 85.3011 86.1584 84.9669 86.1599 84.6249C86.1741 79.1153 86.1973 71.8449 86.23 64.4609C93.0138 55.6678 90.5217 45.359 88.396 45.6161C85.7898 45.9332 63.2104 24.5063 58.8794 23.4077C54.5484 22.3091 43.5467 25.8558 41.6534 35.7366C39.76 45.6175 38.9686 70.5233 46.15 80.4666C48.1936 83.2962 51.4122 84.403 55.806 83.7871C55.8122 85.8551 55.8245 87.0157 55.8534 89.3577C55.797 93.8776 52.1685 97.1228 44.9667 99.2977Z" fill="url(#paint1_linear_4_998)"/>
<path d="M55.8533 83.78C66.2667 82.5966 72.8933 78.1 72.8933 78.1C72.8933 78.1 65.32 87.5666 55.8533 89.46V83.78Z" fill="#FC9F6A"/>
<path d="M89.6967 64.61C92.958 56.7669 106.027 40.7933 94.7614 30.8533C90.9747 12.3933 70.0534 14.4367 56.09 18.6967C46.7052 21.5599 39.618 27.2167 38.1034 22.9567C28.6367 30.8533 33.3776 38.5767 39.618 40.7933C45.2819 42.805 54.8594 44.8166 71.1449 42.9233C74.054 42.5849 73.4448 51.4944 74.9992 52.4576C77.3313 53.9027 79.1414 44.8166 85.5352 47.5449C91.9289 50.2732 88.1347 62.9235 81.2714 62.9235C78.9047 62.9235 77.7214 69.4304 84.1114 72.5071C88.75 74.7867 87.5776 69.7064 89.6967 64.61Z" fill="url(#paint2_linear_4_998)"/>
<path d="M120.7 113.746C125.206 122.908 127.8 144.039 127.8 144.039H14.2C14.2 144.039 16.7948 122.906 21.3 113.746C25.8052 104.586 52.114 96.09 52.114 96.09C66.6515 101.767 75.5478 101.767 89.8723 96.0867C89.8723 96.0867 116.194 104.583 120.7 113.746Z" fill="url(#paint3_linear_4_998)"/>
<path d="M74.3133 99.4L76.68 142.947H65.32L67.6867 99.4C67.6867 99.4 69.8957 97.0333 71 97.0333C72.1043 97.0333 74.3133 99.4 74.3133 99.4Z" fill="url(#paint4_linear_4_998)"/>
<path d="M74.8525 108.248L67.4093 103.947L67.6867 99.4C69.1594 97.8222 70.2638 97.0333 71 97.0333C71.7362 97.0333 72.8406 97.8222 74.3133 99.4L74.8529 108.248H74.8525Z" fill="#645050"/>
<path d="M71 97.0295L66.2667 105.553L51.5933 96.56L55.8533 90.4066L71 96.0019L86.1467 90.4066L90.4067 96.56L75.7333 105.553L71 97.0295Z" fill="white"/>
</g>
<defs>
<linearGradient id="paint0_linear_4_998" x1="71" y1="0" x2="71" y2="142" gradientUnits="userSpaceOnUse">
<stop stop-color="#806A6A"/>
<stop offset="1" stop-color="#665654"/>
</linearGradient>
<linearGradient id="paint1_linear_4_998" x1="68.6909" y1="23.2156" x2="68.6909" y2="110.658" gradientUnits="userSpaceOnUse">
<stop stop-color="#F7B186"/>
<stop offset="1" stop-color="#FFC299"/>
</linearGradient>
<linearGradient id="paint2_linear_4_998" x1="66.0018" y1="15.8036" x2="66.0018" y2="73.0677" gradientUnits="userSpaceOnUse">
<stop stop-color="#1D0024"/>
<stop offset="1" stop-color="#100014"/>
</linearGradient>
<linearGradient id="paint3_linear_4_998" x1="71" y1="96.0867" x2="71" y2="144.039" gradientUnits="userSpaceOnUse">
<stop stop-color="#1D0024"/>
<stop offset="1" stop-color="#100014"/>
</linearGradient>
<linearGradient id="paint4_linear_4_998" x1="71" y1="97.0333" x2="71" y2="142.947" gradientUnits="userSpaceOnUse">
<stop stop-color="#806A6A"/>
<stop offset="1" stop-color="#665654"/>
</linearGradient>
<clipPath id="clip0_4_998">
<rect width="142" height="142" rx="71" fill="white"/>
</clipPath>
</defs>
</svg>
