<svg width="142" height="142" viewBox="0 0 142 142" fill="none" xmlns="http://www.w3.org/2000/svg">
<g clip-path="url(#clip0_4_997)">
<rect width="142" height="142" rx="71" fill="url(#paint0_linear_4_997)"/>
<path d="M105.317 75.4967C109.156 62.7446 111.523 40.9433 95.3767 26.0333C83.0369 14.6383 49.7 13.49 38.1033 38.34C36.1674 42.4883 38.8133 48.99 44.02 48.7533C46.0662 48.6587 47.3333 55.1433 48.5167 59.1667C46.86 75.4967 32.1005 75.7982 24.6133 88.2767C15.3833 103.66 26.7433 126.38 53.96 126.38C81.1767 126.38 96.7787 103.852 105.317 75.4967Z" fill="url(#paint1_linear_4_997)"/>
<path d="M114.547 112.854C118.018 119.54 119.753 143.893 119.753 143.893H22.2467C22.2467 143.893 23.9824 119.54 27.4533 112.854C32.66 102.826 71 89.9333 71 89.9333C71 89.9333 109.34 102.826 114.547 112.854Z" fill="url(#paint2_linear_4_997)"/>
<path d="M82.36 95.6133C82.36 95.6133 76.3174 98.9267 70.7586 98.9267C65.1998 98.9267 59.64 95.6133 59.64 95.6133V85.2C58.4441 85.389 57.2327 85.461 56.0228 85.4149C44.6685 85.4139 40.3872 68.8752 42.6 48.7533C44.02 48.7533 47.3333 48.7533 52.0667 42.1267C50.8833 51.3567 64.61 49.9367 69.8167 42.6C67.2134 51.3567 74.0767 57.2733 79.9934 53.7233C91.5952 46.762 94.2033 67.983 82.36 68.16V95.6133Z" fill="url(#paint3_linear_4_997)"/>
<g style="mix-blend-mode:multiply" opacity="0.782">
<path d="M59.64 85.2C65.5116 84.119 71.13 81.9519 76.2067 78.81C76.2067 78.81 70.29 88.9867 59.64 88.9867V85.2Z" fill="#FFD7B8"/>
</g>
<path d="M71.0156 98.4415C74.4364 98.2867 82.36 96.6111 82.36 92.9911V89.9333C83.2281 89.9333 85.7136 91.9838 86.992 93.72C92.0453 100.583 86.4401 106.737 81.8687 106.737C76.1006 106.737 72.278 101.917 71 99.5988C69.722 101.918 65.8994 106.737 60.1313 106.737C55.5599 106.737 49.9547 100.583 55.008 93.72C56.2864 91.9838 58.7719 89.9333 59.64 89.9333V92.9911C59.64 96.6111 67.7775 98.2867 71.0156 98.4415Z" fill="white"/>
<path d="M69.1067 130.64C69.1067 130.266 69.2177 129.899 69.4258 129.588C69.6338 129.277 69.9295 129.034 70.2755 128.891C70.6214 128.747 71.0021 128.71 71.3694 128.783C71.7366 128.856 72.074 129.036 72.3388 129.301C72.6036 129.566 72.7839 129.903 72.857 130.271C72.93 130.638 72.8925 131.019 72.7492 131.365C72.6059 131.711 72.3632 132.006 72.0519 132.214C71.7405 132.422 71.3745 132.533 71 132.533C70.4979 132.533 70.0163 132.334 69.6612 131.979C69.3061 131.624 69.1067 131.142 69.1067 130.64ZM69.1067 121.173C69.1067 120.799 69.2177 120.433 69.4258 120.121C69.6338 119.81 69.9295 119.567 70.2755 119.424C70.6214 119.281 71.0021 119.243 71.3694 119.316C71.7366 119.389 72.074 119.57 72.3388 119.835C72.6036 120.099 72.7839 120.437 72.857 120.804C72.93 121.171 72.8925 121.552 72.7492 121.898C72.6059 122.244 72.3632 122.54 72.0519 122.748C71.7405 122.956 71.3745 123.067 71 123.067C70.4979 123.067 70.0163 122.867 69.6612 122.512C69.3061 122.157 69.1067 121.675 69.1067 121.173ZM69.1067 111.707C69.1067 111.332 69.2177 110.966 69.4258 110.655C69.6338 110.343 69.9295 110.101 70.2755 109.957C70.6214 109.814 71.0021 109.777 71.3694 109.85C71.7366 109.923 72.074 110.103 72.3388 110.368C72.6036 110.633 72.7839 110.97 72.857 111.337C72.93 111.705 72.8925 112.085 72.7492 112.431C72.6059 112.777 72.3632 113.073 72.0519 113.281C71.7405 113.489 71.3745 113.6 71 113.6C70.4979 113.6 70.0163 113.401 69.6612 113.045C69.3061 112.69 69.1067 112.209 69.1067 111.707Z" fill="url(#paint4_linear_4_997)"/>
</g>
<defs>
<linearGradient id="paint0_linear_4_997" x1="71" y1="142" x2="71" y2="0" gradientUnits="userSpaceOnUse">
<stop stop-color="#FFC9B3"/>
<stop offset="1" stop-color="#FFD2C2"/>
</linearGradient>
<linearGradient id="paint1_linear_4_997" x1="64.7909" y1="18.2652" x2="64.7909" y2="126.38" gradientUnits="userSpaceOnUse">
<stop stop-color="#130027"/>
<stop offset="1" stop-color="#130017"/>
</linearGradient>
<linearGradient id="paint2_linear_4_997" x1="71" y1="143.893" x2="71" y2="89.9333" gradientUnits="userSpaceOnUse">
<stop stop-color="#E6864E"/>
<stop offset="1" stop-color="#E67240"/>
</linearGradient>
<linearGradient id="paint3_linear_4_997" x1="66.0521" y1="42.1267" x2="66.0521" y2="98.9267" gradientUnits="userSpaceOnUse">
<stop stop-color="#FFE0CC"/>
<stop offset="1" stop-color="#FFEADB"/>
</linearGradient>
<linearGradient id="paint4_linear_4_997" x1="71" y1="109.813" x2="71" y2="132.533" gradientUnits="userSpaceOnUse">
<stop stop-color="#130027"/>
<stop offset="1" stop-color="#130017"/>
</linearGradient>
<clipPath id="clip0_4_997">
<rect width="142" height="142" rx="71" fill="white"/>
</clipPath>
</defs>
</svg>
