<svg width="142" height="142" viewBox="0 0 142 142" fill="none" xmlns="http://www.w3.org/2000/svg">
<g clip-path="url(#clip0_4_999)">
<rect width="142" height="142" rx="71" fill="url(#paint0_linear_4_999)"/>
<path d="M76.1423 23.5247C74.2489 15.2413 83.2267 8.88494 92.4723 13.2486C114.246 23.5247 101.611 38.908 93.8009 37.2513C85.9909 35.5947 78.0356 31.808 76.1423 23.5247Z" fill="url(#paint1_linear_4_999)"/>
<path d="M81.4133 75.7333C71.2447 80.6186 69.7612 80.3568 47.3333 62.0066C13.4899 34.3166 45.44 8.99332 79.7566 22.4833C116.913 38.8133 104.465 64.6606 81.4133 75.7333Z" fill="url(#paint2_linear_4_999)"/>
<path d="M82.3604 95.14C78.8895 102.713 74.4714 106.5 71.0004 106.5C67.5295 106.5 63.1114 102.713 59.6404 95.14V85.6733C59.6404 85.6733 58.0959 85.7207 57.0371 85.6733C45.9653 85.2 42.2658 67.3899 44.0034 49.576C45.2757 36.53 56.3271 54.4333 74.3138 41.89C73.6038 55.6167 79.5204 54.1967 82.1238 52.54C93.9571 47.0967 94.1938 69.3433 82.4982 67.6195C82.501 67.8561 82.4551 77.0297 82.3604 95.14Z" fill="url(#paint3_linear_4_999)"/>
<path d="M59.64 85.6728C63.9 85.3573 69.2067 82.9748 75.5601 78.5255C73.6131 85.2301 68.3064 89.1903 59.64 90.4062V85.6728Z" fill="#FF9768"/>
<path d="M55.7265 97.8933C55.7265 97.8933 56.4407 92.9626 58.1154 92.5404C59.79 92.1182 69.5776 92.0671 69.5861 93.9604C69.5861 94.3078 69.9231 98.0311 71.0393 98.0311C72.1554 98.0311 72.4422 94.3059 72.4441 93.9604C72.4531 92.0671 82.1839 92.14 83.9149 92.5404C85.6459 92.9409 86.2967 97.8995 86.2967 97.8995C86.2967 97.8995 111.857 109.935 114.547 115.073C116.861 119.49 118.596 129.746 119.753 145.839H22.2466C23.4038 129.746 25.1393 119.49 27.4533 115.073C30.1433 109.937 55.7265 97.8933 55.7265 97.8933Z" fill="url(#paint4_linear_4_999)"/>
<path d="M69.1066 130.167C69.1066 129.792 69.2177 129.426 69.4257 129.115C69.6338 128.804 69.9295 128.561 70.2754 128.418C70.6214 128.274 71.0021 128.237 71.3693 128.31C71.7366 128.383 72.074 128.563 72.3387 128.828C72.6035 129.093 72.7839 129.43 72.8569 129.797C72.93 130.165 72.8925 130.545 72.7492 130.891C72.6059 131.237 72.3632 131.533 72.0518 131.741C71.7405 131.949 71.3744 132.06 71 132.06C70.4978 132.06 70.0162 131.861 69.6612 131.506C69.3061 131.15 69.1066 130.669 69.1066 130.167ZM69.1066 120.7C69.1066 120.326 69.2177 119.96 69.4257 119.648C69.6338 119.337 69.9295 119.094 70.2754 118.951C70.6214 118.808 71.0021 118.77 71.3693 118.843C71.7366 118.916 72.074 119.097 72.3387 119.361C72.6035 119.626 72.7839 119.963 72.8569 120.331C72.93 120.698 72.8925 121.079 72.7492 121.425C72.6059 121.771 72.3632 122.066 72.0518 122.274C71.7405 122.482 71.3744 122.593 71 122.593C70.4978 122.593 70.0162 122.394 69.6612 122.039C69.3061 121.684 69.1066 121.202 69.1066 120.7ZM69.1066 111.233C69.1066 110.859 69.2177 110.493 69.4257 110.182C69.6338 109.87 69.9295 109.628 70.2754 109.484C70.6214 109.341 71.0021 109.303 71.3693 109.376C71.7366 109.45 72.074 109.63 72.3387 109.895C72.6035 110.159 72.7839 110.497 72.8569 110.864C72.93 111.231 72.8925 111.612 72.7492 111.958C72.6059 112.304 72.3632 112.6 72.0518 112.808C71.7405 113.016 71.3744 113.127 71 113.127C70.4978 113.127 70.0162 112.927 69.6612 112.572C69.3061 112.217 69.1066 111.736 69.1066 111.233Z" fill="#664F4D"/>
<path d="M76.0126 37.5958C68.4392 56.5292 72.6992 65.7592 78.6159 76.8825C84.5326 88.0058 77.1959 98.4192 77.1959 98.4192C77.1959 98.4192 85.7159 92.9758 85.7159 80.9058C85.7159 68.8358 77.1959 61.2625 84.2959 51.3225C91.3959 41.3825 83.5859 18.6625 76.0126 37.5958Z" fill="url(#paint5_linear_4_999)"/>
</g>
<defs>
<linearGradient id="paint0_linear_4_999" x1="71" y1="0" x2="71" y2="142" gradientUnits="userSpaceOnUse">
<stop stop-color="#806A6A"/>
<stop offset="1" stop-color="#665654"/>
</linearGradient>
<linearGradient id="paint1_linear_4_999" x1="90.247" y1="11.8311" x2="90.247" y2="37.3748" gradientUnits="userSpaceOnUse">
<stop stop-color="#1D0024"/>
<stop offset="1" stop-color="#100014"/>
</linearGradient>
<linearGradient id="paint2_linear_4_999" x1="68.1335" y1="18.7474" x2="68.1335" y2="78.4236" gradientUnits="userSpaceOnUse">
<stop stop-color="#1D0024"/>
<stop offset="1" stop-color="#100014"/>
</linearGradient>
<linearGradient id="paint3_linear_4_999" x1="67.3651" y1="41.89" x2="67.3651" y2="106.5" gradientUnits="userSpaceOnUse">
<stop stop-color="#F7B186"/>
<stop offset="1" stop-color="#FFC299"/>
</linearGradient>
<linearGradient id="paint4_linear_4_999" x1="71" y1="145.839" x2="71" y2="92.3002" gradientUnits="userSpaceOnUse">
<stop stop-color="#FCF2EB"/>
<stop offset="1" stop-color="#FFF9F5"/>
</linearGradient>
<linearGradient id="paint5_linear_4_999" x1="79.5162" y1="30.2933" x2="79.5162" y2="98.4192" gradientUnits="userSpaceOnUse">
<stop stop-color="#1D0024"/>
<stop offset="1" stop-color="#100014"/>
</linearGradient>
<clipPath id="clip0_4_999">
<rect width="142" height="142" rx="71" fill="white"/>
</clipPath>
</defs>
</svg>
